<?xml version="1.0" encoding="utf-8"?><svg xmlns="http://www.w3.org/2000/svg" xmlns:xlink="http://www.w3.org/1999/xlink"><symbol viewBox="0 0 48 48" id="PDF48" xmlns="http://www.w3.org/2000/svg"><path d="M37.939.124h-.004l9.539 9.944v37.809h-35.63V48h35.754V10.192z" fill="#949494"/><path d="M37.816 0H11.721v47.877h35.753V10.068z" fill="#f1f1f1"/><path d="M11.458 2.564H.504v11.705h34.455V2.564z" fill="gray"/><path d="M.728 2.363h34.418v11.712H.728z" fill="#dc1d00"/><g fill="#4d4d4d"><path d="M11.813 8.276l-.152-.003V5.739h.331c.379 0 .618.122.787.311.212.238.313.658.313.957 0 .422 0 .803-.38 1.074-.204.145-.533.195-.899.195m.325-3.932h-.051a16.22 16.22 0 01-.355.005H9.898v8.236h1.763V9.798l.391.021c.41 0 .777-.091 1.108-.2s.609-.291.846-.499c.236-.208.455-.475.575-.778.18-.457.229-1.099.18-1.557-.046-.442-.065-.812-.195-1.103-.13-.292-.298-.528-.503-.71s-.43-.316-.674-.404-.479-.147-.704-.18a3.933 3.933 0 00-.547-.044M17.794 11.069c-.055 0-.111-.001-.169-.004V5.814h.022c.359 0 .798.002 1.026.184.232.186.418.415.556.688s.229.584.243.901c.016.377.003.68.003.942 0 .255-.001.569-.057.878s-.152.597-.29.863-.39.446-.623.618c-.193.143-.431.181-.711.181m.313-6.748c-.19 0-.375.014-.505.019-.222.007-.355.01-.403.01h-1.337v8.236h1.573c.694 0 1.282-.1 1.763-.3s.869-.48 1.165-.841.509-.789.639-1.284.195-1.038.195-1.627c0-.765.002-1.35-.15-1.933a3.038 3.038 0 00-.693-1.257c-.28-.31-.585-.539-.917-.688s-.645-.251-.941-.306a2.225 2.225 0 00-.389-.029M26.501 4.35h-4.166v8.236h1.763V9.315h2.226V7.786h-2.226V5.879h2.403z"/></g><path d="M41.029 32.39c-.017-.164-.164-2.069-3.549-1.987-3.384.082-4.205.296-4.205.296s-2.53-2.562-3.45-4.551c0 0 1.117-3.269 1.067-5.323-.049-2.054-.542-3.236-2.119-3.22-1.577.017-1.807 1.396-1.6 3.451.187 1.843 1.14 4.008 1.14 4.008s-.729 2.267-1.691 4.522c-.964 2.257-1.621 3.439-1.621 3.439s-3.259 1.09-4.671 2.404c-1.413 1.313-1.987 2.323-1.243 3.335.641.87 2.886 1.067 4.89-1.562 2.004-2.628 2.908-4.271 2.908-4.271s3.059-.838 4.01-1.068c.951-.229 2.102-.41 2.102-.41s2.792 2.809 5.486 2.71 2.563-1.608 2.546-1.773zm-21.241 5.93c-1.676-1.002 3.516-4.09 4.452-4.188-.001 0-2.698 5.238-4.452 4.188zm7.967-18.021c0-1.626.526-2.07.937-2.07s.871.197.888 1.61c.016 1.413-.888 4.173-.888 4.173-.312-.329-.937-2.087-.937-3.713zm2.163 11.139c-1.681.41-2.524.838-2.524.838l.69-1.545c.689-1.544 1.396-3.646 1.396-3.646.952 1.774 2.842 3.86 2.842 3.86s-.722.081-2.404.493zm4.042-.143s5.465-.99 5.465.876c0 1.867-3.385 1.106-5.465-.876z" fill="#dc1d00"/><path d="M37.685.131V10.2h9.658z" fill="#949494"/><path d="M37.816 0v10.068h9.658z" fill="#f1f1f1"/><path d="M11.682 8.145l-.152-.002V5.607h.331c.378 0 .618.122.787.312.212.238.313.658.313.957 0 .423 0 .804-.38 1.074-.205.145-.533.195-.899.195m.325-3.932h-.051l-.355.005H9.767v8.236h1.763V9.667l.39.022c.41 0 .777-.091 1.108-.2s.609-.292.845-.499a2.09 2.09 0 00.575-.778c.18-.457.228-1.099.18-1.557-.046-.442-.065-.812-.195-1.104a2.063 2.063 0 00-.502-.71 2.056 2.056 0 00-.674-.404 3.72 3.72 0 00-1.25-.224M17.663 10.938l-.169-.003V5.683h.022c.359 0 .798.002 1.026.184.232.186.418.415.556.688s.229.585.243.902c.016.377.003.679.003.941 0 .255-.001.569-.057.879s-.152.597-.29.863-.39.446-.622.617c-.195.143-.432.181-.712.181m.312-6.749c-.19 0-.375.015-.505.019-.221.007-.354.011-.402.011h-1.336v8.236h1.573c.694 0 1.282-.1 1.763-.3s.87-.481 1.165-.841c.296-.36.509-.788.639-1.283s.195-1.038.195-1.628c0-.765.002-1.349-.15-1.933a3.062 3.062 0 00-.693-1.257c-.28-.309-.586-.539-.917-.688s-.645-.251-.94-.306a2.178 2.178 0 00-.392-.03M26.369 4.219h-4.165v8.236h1.762V9.184h2.226V7.655h-2.226V5.748h2.403z" fill="#fffefe"/></symbol><symbol viewBox="0 0 17 17" id="agenda" xmlns="http://www.w3.org/2000/svg"><path d="M14 2V0H1v17h13v-2h2V2zM2 16V1h2v15zm11 0H5V1h8zm2-2h-1v-3h1zm0-4h-1V7h1zm-1-4V3h1v3zM6 4h5v1H6zm0 2h4v1H6z"/></symbol><symbol viewBox="0 0 17 17" id="alert" xmlns="http://www.w3.org/2000/svg"><path d="M8.454 1.492L.212 16h16.581zm.005 2.016L15.064 15H1.93zM9 10.938H8V7h1zm.5 2.093a1 1 0 11-2 0 1 1 0 012 0z"/></symbol><symbol viewBox="0 0 17 17" id="bell" xmlns="http://www.w3.org/2000/svg"><path d="M15.312 14.125c-.014-.013-1.312-1.294-1.312-3.21V7.623C14 4.522 11.532 2 8.5 2S3 4.522 3 7.623v3.292c0 1.861-1.306 3.203-1.318 3.216l-.843.853h15.357zm-12.26-.141c.444-.692.948-1.764.948-3.069V7.623C4 5.074 6.019 3 8.5 3S13 5.074 13 7.623v3.292c0 1.32.495 2.383.938 3.069zM9 2H8V1h1zm0 13h1c0 .827-.673 1.5-1.5 1.5S7 15.827 7 15h1a.5.5 0 001 0z"/></symbol><symbol viewBox="0 0 18 18" id="botton_arrow" xmlns="http://www.w3.org/2000/svg"><path d="M.786 10.896l6.318 6.319a2.682 2.682 0 003.792 0l6.319-6.319a2.682 2.682 0 000-3.792L10.896.785a2.682 2.682 0 00-3.792 0L.786 7.104a2.68 2.68 0 000 3.792zm4.037-3.373l3.194 3.192-.002-6.372h1.968v6.375l3.195-3.197 1.393 1.388-5.567 5.569-5.578-5.569z" fill="#231f20"/></symbol><symbol viewBox="0 0 272 19" id="cards_logo" xmlns="http://www.w3.org/2000/svg"><linearGradient id="afa" gradientTransform="matrix(1 0 0 -1 -200.944 -301)" gradientUnits="userSpaceOnUse" x1="458.015" x2="470.892" y1="-306.65" y2="-306.65"><stop offset=".3" stop-color="#00b4e6"/><stop offset="1" stop-color="#088ccb"/></linearGradient><path d="M15.229 15.314l2.043-11.997h3.272l-2.047 11.997zM30.358 3.612a8.443 8.443 0 00-2.931-.504c-3.231 0-5.507 1.627-5.527 3.959-.018 1.723 1.625 2.686 2.865 3.259 1.273.588 1.702.963 1.697 1.488-.01.804-1.018 1.171-1.958 1.171-1.309 0-2.003-.181-3.077-.629l-.421-.191-.459 2.688c.763.334 2.175.624 3.643.639 3.438 0 5.668-1.608 5.693-4.099.013-1.365-.858-2.403-2.745-3.259-1.143-.556-1.844-.925-1.837-1.488 0-.498.593-1.032 1.874-1.032a6.02 6.02 0 012.447.46l.294.138zM38.743 3.329h-2.527c-.783 0-1.368.213-1.712.995l-4.855 10.995h3.434s.561-1.479.688-1.803l4.188.005c.097.42.397 1.798.397 1.798h3.035zm-4.033 7.733c.271-.692 1.303-3.355 1.303-3.355-.018.032.27-.695.434-1.146l.222 1.035.757 3.466zM12.487 3.326l-3.203 8.181-.342-1.662c-.594-1.918-2.451-3.994-4.528-5.033l2.927 10.493 3.46-.005L15.95 3.326z" fill="#00589f"/><path d="M6.315 3.318H1.04L1 3.567c4.102.994 6.817 3.394 7.942 6.277L7.797 4.331c-.197-.76-.772-.986-1.482-1.013z" fill="#f9a51a"/><g fill="#231f20"><path d="M85.69 8.94v3.339h-1.165V9.322c0-.893-.459-1.392-1.236-1.392-.749 0-1.375.493-1.375 1.403v2.946h-1.166V9.322c0-.893-.46-1.392-1.237-1.392-.749 0-1.375.493-1.375 1.403v2.946h-1.165V6.965h1.154v.649c.426-.625 1.086-.788 1.63-.788.81 0 1.47.361 1.836.948.46-.759 1.281-.948 1.941-.948 1.265 0 2.158.871 2.158 2.114zM92.443 12.279h-1.159v-.639c-.366.472-.916.776-1.67.776-1.486 0-2.656-1.171-2.656-2.795 0-1.625 1.17-2.795 2.656-2.795.754 0 1.304.311 1.67.782v-.643h1.159zM88.15 9.622c0 .932.604 1.702 1.603 1.702.959 0 1.603-.73 1.603-1.702 0-.97-.644-1.702-1.603-1.702-.998-.001-1.603.771-1.603 1.702zM97.821 8.297a3.422 3.422 0 00-1.642-.455c-.632 0-1.004.255-1.004.631 0 .371.388.478.876.549l.55.083c1.158.167 1.847.66 1.847 1.569 0 1.021-.888 1.737-2.418 1.737-.549 0-1.503-.105-2.28-.683l.538-.87c.383.293.888.543 1.752.543.793 0 1.209-.25 1.209-.649 0-.301-.288-.5-.92-.587l-.555-.072c-1.176-.161-1.802-.706-1.802-1.559 0-1.055.842-1.704 2.196-1.704.832 0 1.603.207 2.152.561zM103.599 8.018h-2.035v2.314c0 .715.377.991.843.991.361 0 .754-.159 1.07-.359l.46.926c-.427.289-.965.527-1.63.527-1.204 0-1.908-.649-1.908-2.062V8.018H99.34V6.965h1.059V5.356h1.165v1.608h2.035zM109.954 9.616c0 .149-.011.3-.021.433h-3.928c.157.954.826 1.354 1.581 1.354.533 0 1.098-.211 1.536-.56l.577.826c-.649.554-1.382.748-2.186.748-1.591 0-2.718-1.108-2.718-2.795 0-1.664 1.082-2.795 2.646-2.795 1.486-.001 2.507 1.131 2.513 2.789zm-3.944-.448h2.757c-.128-.826-.61-1.309-1.348-1.309-.826 0-1.287.531-1.409 1.309zM114.972 6.975l-.277 1.15c-.244-.129-.599-.195-.882-.195-.738 0-1.265.521-1.265 1.426v2.923h-1.159V6.965h1.148v.599c.35-.504.893-.738 1.542-.738.355 0 .627.045.893.149zM120.239 7.675l-.744.794c-.372-.35-.765-.549-1.275-.549-.894 0-1.569.699-1.569 1.702 0 1.004.676 1.702 1.569 1.702.51 0 .965-.237 1.303-.554l.715.799c-.482.561-1.192.849-1.985.849-1.692 0-2.796-1.204-2.796-2.795s1.104-2.795 2.796-2.795c.794-.002 1.515.288 1.986.847zM126.416 12.279h-1.159v-.639c-.366.472-.915.776-1.67.776-1.485 0-2.656-1.171-2.656-2.795 0-1.625 1.17-2.795 2.656-2.795.755 0 1.304.311 1.67.782v-.643h1.159zm-4.293-2.657c0 .932.605 1.702 1.604 1.702.959 0 1.603-.73 1.603-1.702 0-.97-.644-1.702-1.603-1.702-.999-.001-1.604.771-1.604 1.702zM131.816 6.975l-.277 1.15c-.243-.129-.599-.195-.882-.195-.737 0-1.265.521-1.265 1.426v2.923h-1.159V6.965h1.148v.599c.35-.504.893-.738 1.542-.738.356 0 .627.045.893.149zM136.497 7.608V4.617h1.16v7.663h-1.16v-.639c-.367.472-.915.776-1.67.776-1.486 0-2.656-1.171-2.656-2.795 0-1.625 1.169-2.795 2.656-2.795.755-.001 1.303.31 1.67.781zm-3.134 2.014c0 .932.604 1.702 1.604 1.702.958 0 1.602-.73 1.602-1.702 0-.97-.643-1.702-1.602-1.702-1-.001-1.604.771-1.604 1.702z"/></g><path d="M57.766 9.3a7.487 7.487 0 002.855 5.887A7.484 7.484 0 0063.477 9.3a7.483 7.483 0 00-2.856-5.887A7.487 7.487 0 0057.766 9.3z" fill="#f05f22"/><path d="M57.767 9.3a7.482 7.482 0 012.855-5.887A7.5 7.5 0 0048.478 9.3a7.5 7.5 0 0012.144 5.888A7.487 7.487 0 0157.767 9.3z" fill="#ec1c24"/><path d="M65.263 1.8a7.466 7.466 0 00-4.644 1.613c1.739 1.374 2.855 3.499 2.855 5.887s-1.117 4.513-2.855 5.887A7.5 7.5 0 1065.263 1.8z" fill="#f8a01b"/><path d="M161.545 15.196h-6.563V3.402h6.563z" fill="#6c6bbd"/><path d="M155.398 9.299a7.488 7.488 0 012.865-5.896 7.499 7.499 0 00-12.134 5.896 7.5 7.5 0 0012.134 5.898 7.495 7.495 0 01-2.865-5.898" fill="#d32011"/><path d="M170.397 9.299a7.5 7.5 0 01-12.134 5.898 7.487 7.487 0 002.864-5.897 7.487 7.487 0 00-2.864-5.896 7.498 7.498 0 0112.134 5.895" fill="#0099df"/><path d="M210.976 6.852c.231 0 .564.043.82.144l-.356 1.087a1.812 1.812 0 00-.72-.136c-.754 0-1.129.487-1.129 1.363v2.969h-1.152V6.985h1.14v.641c.3-.465.733-.774 1.397-.774zm-4.26 1.184h-1.881v2.396c0 .528.186.885.762.885.299 0 .676-.102 1.02-.299l.33.983c-.365.256-.939.411-1.438.411-1.363 0-1.838-.732-1.838-1.962V8.036h-1.076V6.985h1.076V5.377h1.164v1.608h1.881zm-14.75 1.131c.125-.768.588-1.288 1.408-1.288.742 0 1.218.465 1.34 1.288zm3.945.464c-.011-1.651-1.031-2.779-2.517-2.779-1.55 0-2.636 1.128-2.636 2.779 0 1.683 1.131 2.782 2.717 2.782.797 0 1.527-.2 2.17-.743l-.564-.854a2.525 2.525 0 01-1.542.554c-.739 0-1.417-.345-1.583-1.297h3.933a5.71 5.71 0 00.022-.442zm5.067-1.295a3.408 3.408 0 00-1.651-.457c-.632 0-1.009.234-1.009.623 0 .354.398.455.896.521l.543.076c1.154.167 1.851.654 1.851 1.588 0 1.006-.888 1.727-2.414 1.727-.866 0-1.665-.221-2.296-.688l.545-.897c.387.3.965.555 1.76.555.788 0 1.209-.231 1.209-.642 0-.3-.299-.467-.932-.555l-.542-.078c-1.188-.166-1.828-.698-1.828-1.562 0-1.053.866-1.694 2.205-1.694.841 0 1.606.187 2.159.551zm14.209-.393a1.76 1.76 0 00-.662.126c-.2.083-.377.2-.525.349-.148.15-.266.329-.351.54-.085.208-.126.44-.126.691 0 .252.041.482.126.691s.202.39.351.539c.148.148.325.266.525.351.207.084.427.123.662.123.24 0 .459-.039.662-.123a1.6 1.6 0 00.883-.89c.086-.209.127-.439.127-.691 0-.251-.041-.483-.127-.691a1.609 1.609 0 00-.354-.54 1.564 1.564 0 00-.529-.349 1.746 1.746 0 00-.662-.126zm0-1.091c.412 0 .791.068 1.141.212.351.143.653.339.909.587.257.252.456.545.601.887.144.342.217.709.217 1.111 0 .398-.073.77-.217 1.111a2.69 2.69 0 01-.601.885c-.256.252-.559.448-.909.59s-.729.213-1.141.213-.789-.071-1.14-.213-.651-.338-.907-.59a2.755 2.755 0 01-.813-1.996 2.764 2.764 0 01.813-1.998c.256-.249.557-.444.907-.587.35-.144.727-.212 1.14-.212zm-29.954 2.779c0-.932.611-1.694 1.607-1.694.953 0 1.596.731 1.596 1.694s-.643 1.695-1.596 1.695c-.995 0-1.607-.763-1.607-1.695zm4.289 0V6.985h-1.152v.641c-.366-.476-.919-.773-1.674-.773-1.484 0-2.648 1.161-2.648 2.779s1.164 2.782 2.648 2.782c.755 0 1.308-.299 1.674-.777v.643h1.152zm-6.492 2.647V8.957c0-1.253-.799-2.096-2.084-2.104-.676-.014-1.375.199-1.863.942-.363-.59-.94-.942-1.749-.942-.564 0-1.118.165-1.552.786v-.654h-1.15v5.293h1.161V9.343c0-.919.511-1.406 1.297-1.406.765 0 1.151.496 1.151 1.395v2.946h1.166V9.343c0-.919.53-1.406 1.295-1.406.787 0 1.166.496 1.166 1.395v2.946z" fill="#231f20"/><path d="M237.986 3.108v.006c-.006 0-1.71-.006-2.164 1.622-.416 1.493-1.59 5.613-1.622 5.726h-.325s-1.199-4.212-1.621-5.732c-.455-1.628-2.164-1.622-2.164-1.622h-3.894v12.384h3.894V8.138h.324l2.271 7.354h2.704l2.271-7.349h.325v7.349h3.894V3.108zM252.21 3.108s-1.142.103-1.679 1.298l-2.758 6.056h-.323V3.108h-3.895v12.384h3.678s1.194-.109 1.73-1.299l2.704-6.056h.324v7.354h3.895V3.108zM257.617 8.732v6.76h3.894v-3.948h4.219a4.214 4.214 0 003.974-2.812z" fill="#4db45e"/><path d="M265.729 3.108h-8.659a6.221 6.221 0 006.116 5.084h6.674c.061-.281.087-.568.087-.866a4.217 4.217 0 00-4.218-4.218z" fill="url(#afa)"/></symbol><symbol viewBox="0 0 17 17" id="check" xmlns="http://www.w3.org/2000/svg"><path d="M15.418 1.774L6.585 15.259l-4.918-4.386.666-.746 4.051 3.614 8.198-12.515z"/></symbol><symbol viewBox="0 0 17 17" id="clip" xmlns="http://www.w3.org/2000/svg"><path d="M3.348 10.43l4.25-7.36.866.5-4.25 7.36c-.545.944-.44 2.361 1.08 3.239 1.681.971 2.841-.003 3.262-.732l4.061-7.034-.007-.004.729-1.262c.31-.536.004-1.389-.632-1.756-.73-.422-1.697-.192-1.977.291l-.135.234.003.001L6.781 10.5c-.437.756-.222.88-.032.989.32.185.491.242.884-.439l2.573-4.456.865.5-2.572 4.456c-.226.391-.911 1.578-2.25.806-.579-.335-1.108-1.015-.333-2.357l3.221-5.564-.002-.002.729-1.262c.587-1.017 2.181-1.33 3.343-.659 1.12.646 1.586 2.106.998 3.125l-.037.063.007.004-4.753 8.232c-.787 1.361-2.57 2.287-4.629 1.099-2.021-1.167-2.257-3.2-1.445-4.605z"/></symbol><symbol viewBox="0 0 17 17" id="close" xmlns="http://www.w3.org/2000/svg"><path d="M9.207 8.5l6.646 6.646-.707.707L8.5 9.207l-6.646 6.646-.707-.707L7.793 8.5 1.146 1.854l.707-.707L8.5 7.793l6.646-6.646.707.707z"/></symbol><symbol viewBox="0 0 17 17" id="control-pause" xmlns="http://www.w3.org/2000/svg"><path d="M3 15h4V2H3zM4 3h2v11H4zm6-1v13h4V2zm3 12h-2V3h2z"/></symbol><symbol viewBox="0 0 17 17" id="control-play" xmlns="http://www.w3.org/2000/svg"><path d="M3 2.692V14.31l11.618-5.837zm1 1.616l8.382 4.17L4 12.689z"/></symbol><symbol viewBox="0 0 17 17" id="control-play-str" xmlns="http://www.w3.org/2000/svg"><path d="M3 2.692v11.619l11.618-5.837z"/></symbol><symbol viewBox="0 0 17 17" id="download" xmlns="http://www.w3.org/2000/svg"><path d="M17 16v1H0v-1zm-3.646-7.146l-.707-.707-3.646 3.646V0h-1v11.794L4.354 8.146l-.708.708L8.5 13.707z"/></symbol><symbol viewBox="0 0 17 17" id="email" xmlns="http://www.w3.org/2000/svg"><path d="M0 2v13h17V2zm8.494 7.817L1.598 3h13.82zM5.755 8.516L1 13.198V3.815zm.711.703l2.026 2.003 1.996-1.966 4.8 4.744H1.611zm4.735-.664L16 3.83v9.467z"/></symbol><symbol viewBox="0 0 17 17" id="envelope" xmlns="http://www.w3.org/2000/svg"><path d="M2 0v17h13V0zm2.695 4L3.287 1h10.426l-1.41 3zm-.634 1H8v9H3.998L3 15.155V2.741zm.394 10h8.092l.862 1H3.593zm8.551-1H9V5h3.938L14 2.739v12.415z"/></symbol><symbol viewBox="0 0 17 17" id="face-pocker" xmlns="http://www.w3.org/2000/svg"><circle cx="5.5" cy="5.5" r="1"/><path d="M8.5 0C3.813 0 0 3.813 0 8.5 0 13.188 3.813 17 8.5 17c4.688 0 8.5-3.812 8.5-8.5C17 3.813 13.188 0 8.5 0zm0 16C4.364 16 1 12.636 1 8.5S4.364 1 8.5 1 16 4.364 16 8.5 12.636 16 8.5 16z"/><circle cx="11.5" cy="5.5" r="1"/><path d="M12.56 10.531H4.472c-.261 0-.472.21-.472.469s.211.469.472.469h8.087a.47.47 0 10.001-.938z"/></symbol><symbol viewBox="0 0 17 17" id="file" xmlns="http://www.w3.org/2000/svg"><path d="M9.667 0H2v17h13V5.308zM10 1.742L13.273 5H10zM3 16V1h6v5h5v10z"/></symbol><symbol viewBox="0 0 17 17" id="file!" xmlns="http://www.w3.org/2000/svg"><path d="M9.667 0H2v17h13V5.308zM10 1.742L13.273 5H10zM14 16H3V1h6v5h5z"/><circle cx="8.5" cy="13.016" r="1"/><path d="M8 6.984h1v3.938H8z"/></symbol><symbol viewBox="0 0 17 17" id="file+pensil" xmlns="http://www.w3.org/2000/svg"><g fill="none"><path d="M8.906 6L5.388 9.518l2.11 2.111L12 7.127V6zM4.127 12.294l.616.616 1.963-.66-1.934-1.936zM8 5h.49l1.389-1.388L8 1.742zM11.273 5l-.685-.682L9.906 5z"/><path d="M2.258 14.799L3.98 9.511 7.491 6H7V1H1v15h11V8.54l-4.494 4.494zM14.451 1.16a.512.512 0 00-.707 0l-.72.721 2.11 2.11.721-.72a.499.499 0 00-.002-.707zM13.699 5.427l-2.112-2.11.728-.729 2.112 2.11z"/></g><path d="M16.562 1.857L15.159.453c-.565-.566-1.556-.566-2.122 0l-2.451 2.452L7.667 0H0v17h13V7.54l3.561-3.562a1.502 1.502 0 00.001-2.121zM5.388 9.518L8.906 6l1-1 .682-.682.293-.293 2.111 2.11-.992.992-4.502 4.502zm1.318 2.732l-1.963.66-.616-.616.645-1.979zM8 1.742l1.879 1.87L8.49 5H8zM12 16H1V1h6v5h.491L3.98 9.511l-1.722 5.288 5.248-1.765L12 8.54zm1.699-10.573l-2.111-2.11.729-.729 2.11 2.11zm2.156-2.156l-.721.72-2.11-2.11.72-.721a.512.512 0 01.707 0l1.402 1.404a.497.497 0 01.002.707z"/></symbol><symbol viewBox="0 0 17 17" id="file-Q" xmlns="http://www.w3.org/2000/svg"><circle cx="8.5" cy="13.011" r="1.005"/><path d="M9.667 0H2v17h13V5.308zM14 16H3V1h6.292L14 5.729z"/><path d="M8.723 4.495c-2.186 0-2.809 1.666-2.832 2.545l.986.026c.003-.163.092-1.585 1.846-1.585.512 0 .928.194 1.23.577.316.4.389.851.354.991-.167.711-.597 1.099-1.051 1.508-.583.527-1.245 1.121-1.245 2.355h.986c0-.795.385-1.143.919-1.623.522-.469 1.113-1.001 1.352-2.014.124-.52-.1-1.271-.54-1.829a2.51 2.51 0 00-2.005-.951z"/></symbol><symbol viewBox="0 0 17 17" id="file-Q2" xmlns="http://www.w3.org/2000/svg"><circle cx="8.5" cy="13.011" r="1.005"/><path d="M2 0v17h13V0zm12 16H3V1h11v4.729z"/><path d="M8.723 4.495c-2.186 0-2.809 1.666-2.832 2.545l.986.026c.003-.163.092-1.585 1.846-1.585.511 0 .927.194 1.23.577.316.4.389.851.354.991-.166.711-.597 1.099-1.051 1.508-.583.527-1.245 1.121-1.245 2.355h.986c0-.795.385-1.143.919-1.623.521-.469 1.113-1.001 1.352-2.014.125-.52-.1-1.271-.539-1.829a2.514 2.514 0 00-2.006-.951z"/></symbol><symbol viewBox="0 0 17 17" id="file_attached" xmlns="http://www.w3.org/2000/svg"><path d="M9.451 2.5h-.494l.002-.542h-.007v-.063C8.952.883 7.978 0 6.869 0 5.717 0 4.666.917 4.666 1.924V2.5H2.912V17H14V7.027zm.284 1.486l2.792 2.779H9.735zm-4.21-1.828v-.234c0-.477.62-1.064 1.346-1.063.628 0 1.221.503 1.221 1.034l.004.605H5.528v-.343zm7.622 13.989H3.765V3.353h.904l-.007 5.342c0 1.331.686 1.61 1.26 1.61 1.325-.004 1.325-1.18 1.325-1.567l-.001-4.416H6.39l-.001 4.416c.001.678-.151.707-.467.707-.189.002-.402.002-.401-.748l.006-5.344h3.355v4.265h4.265z"/></symbol><symbol viewBox="0 0 17 17" id="files" xmlns="http://www.w3.org/2000/svg"><path d="M12.497 0H6v2.01h1V1h5v4h4v8h-4.017v1H17V4.182zM13 1.832L15.335 4H13zM0 3v14h11V7.182L6.497 3zm7 1.832L9.335 7H7zM1 16V4h5v4h4v8z"/></symbol><symbol viewBox="0 0 17 17" id="files2" xmlns="http://www.w3.org/2000/svg"><path d="M12.882 7.118h2.696l-2.696-2.683z" fill="none"/><path d="M12.882 7.118h2.696l-2.696-2.683z" fill="none"/><path d="M6.588 2.176v-.741l.745.741H8.5L6.314 0H0v14h5.47v-.824H.824V.823h4.941v1.353z"/><path d="M12.608 3H6.294v14H17V7.372zm.274 1.435l2.696 2.683h-2.696zm3.294 11.741H7.118V3.823h4.941v4.118h4.117z"/></symbol><symbol viewBox="0 0 16 16" id="govbuild" xmlns="http://www.w3.org/2000/svg"><path d="M7.109 11.023h1.778v3.823H7.109z" fill="none"/><path d="M14.885 5.383v-.754H8.272V2.967c.049-.025.747-.587 1.192-.582.401.005.668.298.844.38.156.073.378.119.52.119.323 0 .576-.11.991-.33V.022c-.029.011-.481.329-.629.378s-.283.078-.408.073a.936.936 0 01-.526-.197C9.906 0 9.642 0 9.394 0c-.43 0-1.078.475-1.122.499V0h-.548v4.629H1.111v.754H0V16h16V5.383zM2.764 13.685H1.111v-2.661h1.653zm0-3.773H1.111V7.25h1.653zm3.03 3.773H4.141v-2.661h1.653zm0-3.773H4.141V7.25h1.653zm3.093 4.935H7.109v-3.823h1.778zm-.062-4.935H7.171V7.25h1.653v2.662zm3.029 3.773h-1.653v-2.661h1.653zm0-3.773h-1.653V7.25h1.653zm3.031 3.773h-1.653v-2.661h1.653zm0-3.773h-1.653V7.25h1.653z"/></symbol><symbol viewBox="0 0 17 17" id="headphone-alt" xmlns="http://www.w3.org/2000/svg"><path d="M15.668 6.017C14.711 2.46 11.805 0 8.5 0 5.205 0 2.288 2.464 1.332 6.017A1.494 1.494 0 000 7.5v4a1.5 1.5 0 00.924 1.385C1.118 14.632 2.587 16 4.385 16h2.707c.207.581.757 1 1.408 1h3c.827 0 1.5-.673 1.5-1.5s-.673-1.5-1.5-1.5h-3c-.651 0-1.201.419-1.408 1H4.385a2.502 2.502 0 01-2.449-2H3v-1h1V7H3V6h-.606C3.307 3.039 5.746 1 8.5 1c2.762 0 5.193 2.037 6.106 5H14v1h-1v5h1v1h1.506C16.33 13 17 12.327 17 11.5v-4c0-.771-.585-1.401-1.332-1.483zM8.5 15h3a.5.5 0 010 1h-3a.5.5 0 010-1zM2 12h-.506A.498.498 0 011 11.5v-4c0-.276.222-.5.494-.5H2zm14-.5c0 .276-.222.5-.494.5H15V7h.506c.272 0 .494.224.494.5z"/></symbol><symbol viewBox="0 0 17 17" id="help-alt" xmlns="http://www.w3.org/2000/svg"><path d="M8.5 0C3.813 0 0 3.813 0 8.5S3.813 17 8.5 17 17 13.187 17 8.5 13.187 0 8.5 0zm0 16C4.364 16 1 12.636 1 8.5S4.364 1 8.5 1 16 4.364 16 8.5 12.636 16 8.5 16zm1.158-3.781a1.032 1.032 0 11-2.064-.002 1.032 1.032 0 012.064.002zm1.004-8.004c.448.565.674 1.328.55 1.855-.243 1.027-.842 1.567-1.371 2.043-.543.489-.934.84-.934 1.647h-1c0-1.251.671-1.856 1.264-2.39.461-.415.896-.807 1.066-1.529.034-.143-.039-.6-.36-1.005-.307-.389-.728-.586-1.248-.586-1.779 0-1.869 1.444-1.873 1.609l-1-.027c.024-.893.655-2.582 2.873-2.582.818 0 1.539.343 2.033.965z"/></symbol><symbol viewBox="0 0 17 17" id="home" xmlns="http://www.w3.org/2000/svg"><path d="M14 16h-3v-6H6v6H3V7H2v10h13V7h-1zm-7 0v-5h3v5zm9.796-9.527l-.592.807L8.5 1.62.796 7.278l-.592-.806L8.5.38z"/></symbol><symbol viewBox="0 0 17 17" id="id-badge" xmlns="http://www.w3.org/2000/svg"><path d="M0 3v12h17V3zm16 11H1V4h15zm-13.438-.489l-1-.022c.033-1.43 1.398-2.652 3.309-3.017v-.326c-.248-.259-.425-.61-.545-.923a1.239 1.239 0 01-.399-.516c-.185-.41-.153-.821.063-1.068a4.04 4.04 0 01-.006-.217l-.002-.184c-.006-.537-.016-1.42.929-1.584.194-.339.483-.627 1.179-.651 1.123-.035 1.916.378 2.185 1.151.091.265.006.485-.056.645-.059.152-.115.295-.082.564.013.107.011.212.003.312.175.237.211.597.082.975-.095.273-.249.484-.434.608-.111.287-.27.604-.487.845v.377c1.909.375 3.228 1.571 3.261 3.008l-1 .023c-.023-1.021-1.21-1.908-2.823-2.109l-.438-.055V9.638l.2-.15c.106-.08.271-.321.415-.761l.135-.344.074-.631c.014-.106.027-.207.019-.268-.062-.52.066-.85.142-1.046l.012-.031c-.21-.396-.879-.413-1.171-.406-.277.011-.297.05-.351.153-.068.132-.229.442-.637.478-.092.008-.121.027-.121.027-.041.064-.038.367-.036.568l.001.195c0 .141.01.292.029.446l.07.573.12.021.003.248c.154.466.339.721.451.798l.215.149v1.687l-.442.052c-1.612.189-2.844 1.098-2.867 2.115zM15 8h-5V7h5zm-1 2h-4V9h4z"/></symbol><symbol viewBox="0 0 17 17" id="key" xmlns="http://www.w3.org/2000/svg"><path d="M14.811 6.299l.707-.707-1.733-1.733.757-.753-.705-.709-8.146 8.107a2.976 2.976 0 00-1.703-.535c-1.654 0-3 1.346-3 3s1.346 3 3 3 3-1.346 3-3c0-.661-.222-1.268-.585-1.764l5.264-5.238 1.738 1.738.707-.707-1.737-1.736.701-.698zm-10.824 8.67c-1.103 0-2-.897-2-2s.897-2 2-2 2 .897 2 2-.897 2-2 2z"/></symbol><symbol viewBox="0 0 17 17" id="layout-column3" xmlns="http://www.w3.org/2000/svg"><path d="M0 17h5V0H0zM1 1h3v15H1zm5 16h5V0H6zM7 1h3v15H7zm5-1v17h5V0zm4 16h-3V1h3z"/></symbol><symbol viewBox="0 0 17 17" id="layout-sidebar-left" xmlns="http://www.w3.org/2000/svg"><path d="M0 0h5v17H0zm7 17h1v-1H7zm7.222 0h.889v-1h-.889zm-1.778 0h.889v-1h-.889zm-3.555 0h.889v-1h-.889zm1.778 0h.889v-1h-.889zM16 17h1v-1h-1zm0-14h1V2h-1zm0 12h1v-1h-1zm0-8h1V6h-1zm0-2h1V4h-1zm0 4h1V8h-1zm0 2h1v-1h-1zm0 2h1v-1h-1zm0-13v1h1V0zm-1.777 1h.889V0h-.889zm-1.778 0h.889V0h-.889zm-1.778 0h.889V0h-.889zM8.889 1h.889V0h-.889zM7 1h1V0H7zm0 14h1v-1H7zm0-2h1v-1H7zm0-6h1V6H7zm0 4h1v-1H7zm0-6h1V4H7zm0-2h1V2H7zm0 6h1V8H7z"/></symbol><symbol viewBox="0 0 17 17" id="light-bulb" xmlns="http://www.w3.org/2000/svg"><path d="M8.5 0C5.468 0 3 2.617 3 5.833c0 2.354.964 3.67 1.814 4.831C5.451 11.532 6 12.282 6 13.337v2.096C6 16.297 6.673 17 7.5 17h2c.827 0 1.5-.703 1.5-1.567v-2.126c0-1.045.517-1.735 1.17-2.609C12.985 9.607 14 8.251 14 5.833 14 2.617 11.532 0 8.5 0zm1 16h-2c-.275 0-.5-.254-.5-.567V13.8h3v1.633c0 .313-.225.567-.5.567zm1.869-5.901c-.587.785-1.19 1.593-1.336 2.701H6.961c-.152-1.102-.754-1.927-1.34-2.727C4.824 8.985 4 7.86 4 5.833 4 3.168 6.019 1 8.5 1S13 3.168 13 5.833c0 2.085-.829 3.194-1.631 4.266z"/></symbol><symbol viewBox="0 0 17 17" id="location-pin" xmlns="http://www.w3.org/2000/svg"><path d="M8.5.5A5.506 5.506 0 003 6c0 4.373 4.913 10.086 5.122 10.328l.378.435.378-.436C9.087 16.086 14 10.373 14 6 14 2.967 11.532.5 8.5.5zm0 14.715C7.354 13.791 4 9.336 4 6c0-2.481 2.019-4.5 4.5-4.5S13 3.519 13 6c0 3.333-3.354 7.791-4.5 9.215zm0-12.076c-1.654 0-3 1.346-3 3s1.346 3 3 3 3-1.346 3-3-1.346-3-3-3zm0 5c-1.103 0-2-.897-2-2s.897-2 2-2 2 .897 2 2-.897 2-2 2z"/></symbol><symbol viewBox="0 0 17 17" id="lock" xmlns="http://www.w3.org/2000/svg"><path d="M9.5 10.972a.985.985 0 01-.5.846v2.154H8v-2.153a.984.984 0 01-.5-.847 1 1 0 112 0zm5.465-2.512v7.08c0 .827-.673 1.5-1.5 1.5H3.476c-.827 0-1.5-.673-1.5-1.5V8.46c0-.827.673-1.5 1.5-1.5H3.5V4.972c0-2.757 2.243-5 5-5s5 2.243 5 5v1.992a1.498 1.498 0 011.465 1.496zM4.5 6.96h8V4.972c0-2.206-1.794-4-4-4s-4 1.794-4 4zm9.465 1.5a.497.497 0 00-.465-.493v.004h-10V7.96h-.024a.5.5 0 00-.5.5v7.08a.5.5 0 00.5.5h9.989a.5.5 0 00.5-.5z"/></symbol><symbol viewBox="0 0 17 17" id="menu" xmlns="http://www.w3.org/2000/svg"><path d="M16 3v2H1V3zM1 10h15V8H1zm0 5h15v-2H1z"/></symbol><symbol viewBox="0 0 17 17" id="menu-alt" xmlns="http://www.w3.org/2000/svg"><path d="M16 2v2H5V2zM5 9h11V7H5zm0 5h11v-2H5zM2 2a1 1 0 100 2 1 1 0 000-2zm0 5a1 1 0 100 2 1 1 0 000-2zm0 5a1 1 0 100 2 1 1 0 000-2z"/></symbol><symbol viewBox="0 0 17 17" id="menu_g" xmlns="http://www.w3.org/2000/svg"><path d="M1 1.5v14h15v-14zm13 12H3v-6h11z"/></symbol><symbol viewBox="0 0 17 17" id="menu_gm" xmlns="http://www.w3.org/2000/svg"><path d="M1 1.5v14h15v-14zm13 12H3V5.271h11z"/></symbol><symbol viewBox="0 0 24 24" id="menu_max" xmlns="http://www.w3.org/2000/svg"><path d="M0 0h8.8v24H0zM9.896 22.575h1.41v1.411h-1.41zM20.083 22.575h1.253v1.411h-1.253zM17.573 22.575h1.255v1.411h-1.255zM12.561 22.575h1.253v1.411h-1.253zM15.068 22.575h1.255v1.411h-1.255zM22.59 22.575H24v1.411h-1.41zM22.59 2.822H24v1.411h-1.41zM22.59 19.753H24v1.412h-1.41zM22.59 8.466H24v1.411h-1.41zM22.59 5.644H24v1.411h-1.41zM22.59 11.288H24v1.411h-1.41zM22.59 14.109H24v1.411h-1.41zM22.59 16.932H24v1.411h-1.41zM22.59 0H24v1.411h-1.41zM20.083 0h1.253v1.411h-1.253zM17.576 0h1.253v1.411h-1.253zM15.068 0h1.255v1.411h-1.255zM12.561 0h1.253v1.411h-1.253zM9.896 0h1.41v1.411h-1.41z"/></symbol><symbol viewBox="0 0 24 24" id="menu_minim" xmlns="http://www.w3.org/2000/svg"><path d="M0 14.117h5.647V8.471H0zM0 22.588h5.647v-5.646H0zM0 5.647h5.647V0H0zM9.882 22.588h1.412V24H9.882zM20.079 22.588h1.255V24h-1.255zM17.567 22.588h1.256V24h-1.256zM12.55 22.588h1.254V24H12.55zM15.06 22.588h1.256V24H15.06zM22.588 22.588H24V24h-1.412zM22.588 2.824H24v1.412h-1.412zM22.588 19.765H24v1.412h-1.412zM22.588 8.471H24v1.412h-1.412zM22.588 5.647H24v1.412h-1.412zM22.588 11.294H24v1.412h-1.412zM22.588 14.117H24v1.412h-1.412zM22.588 16.941H24v1.411h-1.412zM22.588 0H24v1.412h-1.412zM20.079 0h1.255v1.412h-1.255zM17.57 0h1.254v1.412H17.57zM15.06 0h1.256v1.412H15.06zM12.55 0h1.254v1.412H12.55zM9.882 0h1.412v1.412H9.882zM7.373 22.588h1.412V24H7.373zM7.373 0h1.412v1.412H7.373zM7.373 19.765h1.412v1.412H7.373zM7.373 16.941h1.412v1.411H7.373zM7.373 8.471h1.412v1.412H7.373zM7.373 14.117h1.412v1.412H7.373zM7.373 5.647h1.412v1.412H7.373zM7.373 2.824h1.412v1.412H7.373zM7.373 11.294h1.412v1.412H7.373z"/></symbol><symbol viewBox="0 0 18 18" id="normal" xmlns="http://www.w3.org/2000/svg"><g fill="#231f20"><path d="M9.013 11.883l-2.8-2.796L8.996 6.3l2.8 2.796z"/><path d="M17.214 7.104L10.896.785a2.681 2.681 0 00-3.791 0L.785 7.104a2.683 2.683 0 000 3.792l6.32 6.319a2.68 2.68 0 003.791 0l6.318-6.319a2.68 2.68 0 000-3.792zm-8.2 7.558l-4.191-4.186-.002.002-1.393-1.387 5.567-5.569 4.192 4.185.002-.002 1.392 1.388z"/></g></symbol><symbol viewBox="0 0 17 17" id="panel" xmlns="http://www.w3.org/2000/svg"><path d="M0 0v17h17V0zm16 16H1V1h15zM4 10.232V13h1v-2.768c.738-.218 1.281-.894 1.281-1.701S5.738 7.048 5 6.83V4H4v2.83c-.738.218-1.281.894-1.281 1.701S3.262 10.015 4 10.232zm.5-2.482a.782.782 0 010 1.562.781.781 0 010-1.562zm3.5.357V13h1V8.107c.738-.218 1.281-.894 1.281-1.701S9.738 4.923 9 4.705V4H8v.705c-.738.218-1.281.894-1.281 1.701S7.262 7.89 8 8.107zm.5-2.482a.782.782 0 11-.002 1.564.782.782 0 01.002-1.564zm4 7.792c.982 0 1.781-.799 1.781-1.781 0-.808-.543-1.483-1.281-1.701V4h-1v5.935a1.778 1.778 0 00-1.281 1.701c0 .982.799 1.781 1.781 1.781zm0-2.563a.782.782 0 010 1.562.782.782 0 010-1.562z"/></symbol><symbol viewBox="0 0 17 17" id="pencil" xmlns="http://www.w3.org/2000/svg"><path d="M15.529 2.857l-1.403-1.404c-.565-.566-1.555-.566-2.122 0l-9.057 9.058-1.722 5.288 5.248-1.765 9.055-9.056a1.5 1.5 0 00.001-2.121zM3.094 13.294l.645-1.979 1.934 1.935-1.963.66zm1.261-2.776l5.493-5.493 2.111 2.11-5.494 5.494zm6.2-6.201l.729-.729 2.111 2.11-.729.729zm4.267-.046l-.72.72-2.111-2.11.72-.721a.512.512 0 01.707 0l1.403 1.404a.5.5 0 01.001.707z"/></symbol><symbol viewBox="0 0 17 17" id="pencil-alt" xmlns="http://www.w3.org/2000/svg"><path d="M16.499 1.843L15.096.44c-.566-.566-1.555-.566-2.122 0L5.438 7.976l-1.722 5.287 5.249-1.765 7.534-7.534c.283-.283.439-.66.439-1.061s-.156-.777-.439-1.06zM5.584 10.758l.638-1.957 1.92 1.919-1.942.653zm1.248-2.762l3.986-3.986 2.11 2.11-3.986 3.986zm4.693-4.693l.729-.729 2.11 2.11-.729.729zm4.267-.046l-.72.721-2.11-2.11.72-.721a.512.512 0 01.707 0l1.403 1.403a.5.5 0 010 .707zM15 7.5h1V17H0V2h7.5v1H1v13h14z"/></symbol><symbol viewBox="0 0 17 17" id="pie-chart" xmlns="http://www.w3.org/2000/svg"><path d="M14.985 8.943l.998.067C15.72 12.93 12.433 16 8.5 16 4.364 16 1 12.636 1 8.5c0-3.905 3.047-7.19 6.938-7.479l.074.997C4.641 2.268 2 5.115 2 8.5 2 12.084 4.916 15 8.5 15c3.409 0 6.257-2.66 6.485-6.057zM17 7.499v.5l-.501.017H9.017V-.001L9.518 0C13.644.009 17 3.374 17 7.499zm-1.014-.483c-.223-3.17-2.776-5.743-5.969-5.995v5.995z"/></symbol><symbol viewBox="0 0 17 17" id="plus" xmlns="http://www.w3.org/2000/svg"><path d="M16 9H9v7H8V9H1V8h7V1h1v7h7z"/></symbol><symbol viewBox="0 0 17 17" id="receipt" xmlns="http://www.w3.org/2000/svg"><path d="M2 0v16.902l2.028-2.481 1.503 1.88 1.501-1.875 1.499 1.875 1.5-1.875 1.5 1.875 1.499-1.875 1.97 2.46V0H2zm12 14.036l-.97-1.211-1.499 1.875-1.5-1.875-1.5 1.875-1.499-1.875L5.531 14.7l-1.495-1.87L3 14.098V1h11zM10.997 4h-6V3h6zm-2 4h-4V7h4zm2.981-2h-7V5h7zM5 10h7v1H5z"/></symbol><symbol viewBox="0 0 17 17" id="reload" xmlns="http://www.w3.org/2000/svg"><path d="M6 8H0V2h1v4.109C2.013 2.916 5.036.625 8.5.625c3.506 0 6.621 2.36 7.574 5.739l-.963.271A6.898 6.898 0 008.5 1.624C5.274 1.625 2.484 3.9 1.792 7H6zm5 1v1h4.208c-.693 3.101-3.479 5.375-6.708 5.375a6.895 6.895 0 01-6.611-5.011l-.963.271A7.9 7.9 0 008.5 16.374c3.459 0 6.475-2.28 7.5-5.482V15h1V9z"/></symbol><symbol viewBox="0 0 17 17" id="search" xmlns="http://www.w3.org/2000/svg"><path d="M16.604 15.868l-5.173-5.173A6.468 6.468 0 0013 6.472c0-3.584-2.916-6.5-6.5-6.5a6.466 6.466 0 00-4.598 1.903A6.457 6.457 0 000 6.472c0 3.584 2.916 6.5 6.5 6.5a6.47 6.47 0 004.224-1.569l5.173 5.173zM6.5 11.972a5.506 5.506 0 01-5.5-5.5 5.455 5.455 0 011.61-3.889A5.462 5.462 0 016.5.972c3.032 0 5.5 2.467 5.5 5.5 0 3.032-2.468 5.5-5.5 5.5z"/></symbol><symbol viewBox="0 0 17 17" id="server" xmlns="http://www.w3.org/2000/svg"><path d="M17 3.5C17 1.227 12.62 0 8.5 0S0 1.227 0 3.5c0 .149.024.318.08.5H0v9.5C0 15.773 4.38 17 8.5 17s8.5-1.227 8.5-3.5V4h-.08a1.71 1.71 0 00.08-.5zM8.5 1C12.793 1 16 2.32 16 3.5c0 .398-.388.835-1.093 1.229C13.488 5.525 11.093 6 8.5 6s-4.988-.475-6.407-1.271C1.388 4.335 1 3.898 1 3.5 1 2.32 4.207 1 8.5 1zm0 15C4.207 16 1 14.68 1 13.5v-1.633c.175.135.367.271.604.403 1.562.874 4.14 1.396 6.896 1.396.345 0 .687-.008 1.023-.024 2.361-.111 4.505-.607 5.872-1.372l.001-.001c.236-.133.43-.268.604-.403V13.5c0 1.18-3.207 2.5-7.5 2.5zm6.407-4.603c-1.42.795-3.814 1.27-6.407 1.27-.324 0-.646-.008-.962-.022-2.214-.102-4.203-.552-5.445-1.247C1.389 11.002 1 10.565 1 10.167V8.533c.175.135.368.271.605.403 1.561.874 4.139 1.396 6.895 1.396s5.334-.522 6.895-1.396c.237-.132.43-.268.605-.403v1.634c0 .398-.389.835-1.093 1.23zm-.001-3.334c-1.419.795-3.813 1.27-6.406 1.27s-4.987-.475-6.406-1.27C1.389 7.669 1 7.231 1 6.833V5.199c.175.136.367.271.604.404C3.166 6.478 5.743 7 8.5 7s5.334-.522 6.896-1.397c.237-.133.429-.268.604-.404v1.634c0 .398-.389.836-1.094 1.23z"/></symbol><symbol viewBox="0 0 17 17" id="settings" xmlns="http://www.w3.org/2000/svg"><path d="M8.5 5.972c-1.378 0-2.5 1.122-2.5 2.5s1.122 2.5 2.5 2.5S11 9.85 11 8.472s-1.122-2.5-2.5-2.5zm0 4c-.827 0-1.5-.673-1.5-1.5s.673-1.5 1.5-1.5 1.5.673 1.5 1.5-.673 1.5-1.5 1.5zm8.44-.526c.037-.321.06-.645.06-.974s-.023-.653-.06-.974l-2.588-.778a5.974 5.974 0 00-.474-1.149l1.279-2.377a8.66 8.66 0 00-1.38-1.38L11.4 3.094a6.074 6.074 0 00-1.15-.474L9.474.032c-.32-.037-.644-.06-.974-.06s-.654.023-.974.06L6.75 2.62a5.872 5.872 0 00-1.15.475l-2.377-1.28a8.531 8.531 0 00-1.379 1.38L3.123 5.57a6.047 6.047 0 00-.474 1.15L.06 7.498c-.037.32-.06.644-.06.974s.023.654.06.974l2.588.776c.12.403.278.789.474 1.151l-1.279 2.376c.406.511.869.974 1.38 1.38L5.6 13.85c.362.196.748.354 1.15.474l.776 2.588c.321.037.645.06.974.06s.654-.023.974-.06l.776-2.588c.402-.12.788-.278 1.15-.474l2.376 1.279c.511-.407.974-.87 1.38-1.381l-1.278-2.376c.196-.362.354-.748.474-1.15zm-3.392-.027l-.154.518c-.1.337-.233.66-.396.959l-.256.475.255.475.952 1.77a7.358 7.358 0 01-.306.306L11.4 12.713l-.475.256a5.1 5.1 0 01-.96.396l-.518.154-.155.518-.579 1.932a7.672 7.672 0 01-.426 0l-.579-1.932-.155-.518-.518-.154a5 5 0 01-.959-.396l-.475-.256-2.245 1.207a8.027 8.027 0 01-.306-.306l1.208-2.244-.256-.475a5.112 5.112 0 01-.396-.96l-.153-.517-2.449-.734a5.092 5.092 0 010-.425l2.448-.734.154-.518c.1-.337.233-.66.396-.959l.256-.475L3.05 3.328a8.8 8.8 0 01.305-.306l2.247 1.21.476-.259c.297-.162.619-.295.956-.395l.518-.154.155-.518.579-1.932L8.5.972l.213.003.579 1.932.155.518.518.154c.335.1.659.233.96.396l.475.255 2.244-1.208c.104.099.207.201.306.306l-.953 1.77-.255.475.257.475c.163.3.295.622.395.957l.154.518.518.155 1.932.581.002.213c0 .07-.001.141-.004.213z"/></symbol><symbol viewBox="0 0 17 17" id="shine" xmlns="http://www.w3.org/2000/svg"><path d="M8.5 5C6.57 5 5 6.57 5 8.5S6.57 12 8.5 12 12 10.43 12 8.5 10.43 5 8.5 5zm0 6C7.122 11 6 9.878 6 8.5S7.122 6 8.5 6 11 7.122 11 8.5 9.878 11 8.5 11zM9 4H8V1h1zm-1 9h1v3H8zm8-5v1h-3V8zM4 9H1V8h3zm8.036-3.329l-.707-.707 2.121-2.121.707.707zm-7.072 5.658l.707.707-2.121 2.121-.707-.707zm7.072 0l2.121 2.121-.707.707-2.121-2.121zM4.964 5.671L2.843 3.55l.707-.707 2.121 2.121z"/></symbol><symbol viewBox="0 0 17 17" id="star" xmlns="http://www.w3.org/2000/svg"><path d="M16.647 7.017h-6.225L8.5 1.097l-1.923 5.92H.353l5.035 3.658-1.922 5.92L8.5 12.936l5.035 3.659-1.922-5.92zm-5.014 6.96L8.5 11.699l-3.133 2.277 1.197-3.685-3.133-2.274h3.873L8.5 4.333l1.196 3.684h3.873l-3.133 2.275z"/></symbol><symbol viewBox="0 0 17 17" id="star-full" xmlns="http://www.w3.org/2000/svg"><path d="M16.646 7.017h-6.225L8.5 1.097l-1.923 5.92H.353l5.035 3.658-1.922 5.921 5.034-3.66 5.035 3.66-1.922-5.921z"/></symbol><symbol viewBox="0 0 17 17" id="star-p" xmlns="http://www.w3.org/2000/svg"><path d="M16.646 7.017h-6.225L8.5 1.097l-1.923 5.92H.353l5.035 3.658-1.922 5.921 5.034-3.66 5.035 3.66-1.922-5.921zm-5.013 6.96L8.5 11.699V4.333l1.195 3.684h3.873l-3.133 2.275z"/></symbol><symbol viewBox="0 0 17 17" id="timer" xmlns="http://www.w3.org/2000/svg"><path d="M9 2.025V1h1.5V0h-4v1H8v1.025c-3.902.26-7 3.508-7 7.475C1 13.636 4.364 17 8.5 17S16 13.636 16 9.5c0-3.967-3.098-7.215-7-7.475zM8.5 16C4.916 16 2 13.084 2 9.5S4.916 3 8.5 3 15 5.916 15 9.5 12.084 16 8.5 16zM9 9h4v1H8V6h1z"/></symbol><symbol viewBox="0 0 18 18" id="top_arrow" xmlns="http://www.w3.org/2000/svg"><path d="M17.214 7.104L10.896.785a2.681 2.681 0 00-3.791 0L.785 7.104a2.683 2.683 0 000 3.792l6.32 6.319a2.68 2.68 0 003.791 0l6.318-6.319a2.68 2.68 0 000-3.792zm-4.037 3.373L9.982 7.285l.002 6.371H8.017V7.282l-3.195 3.196-1.394-1.387 5.567-5.569 5.578 5.569z" fill="#231f20"/></symbol><symbol viewBox="0 0 17 17" id="unlock" xmlns="http://www.w3.org/2000/svg"><path d="M9.5 10.972a.985.985 0 01-.5.846v2.154H8v-2.153a.984.984 0 01-.5-.847 1 1 0 112 0zm5.494-2.512v7.08c0 .827-.673 1.5-1.5 1.5H3.506c-.827 0-1.5-.673-1.5-1.5V8.46c0-.827.673-1.5 1.5-1.5H12.5V4.972c0-2.206-1.794-4-4-4s-4 1.794-4 4h-1c0-2.757 2.243-5 5-5s5 2.243 5 5V6.96a1.503 1.503 0 011.494 1.5zm-1 0a.5.5 0 00-.5-.5H3.506a.5.5 0 00-.5.5v7.08a.5.5 0 00.5.5h9.988a.5.5 0 00.5-.5z"/></symbol><symbol viewBox="0 0 17 17" id="user" xmlns="http://www.w3.org/2000/svg"><path d="M17 16.488c-.063-2.687-2.778-4.999-6.521-5.609V9.505c.492-.473.842-1.207 1.071-1.833.332-.166.624-.536.794-1.033.238-.688.146-1.323-.206-1.629.028-.238.046-.481.015-.723-.079-.663.065-1.038.194-1.368.106-.277.229-.591.106-.945C12.011.701 10.726 0 8.835 0l-.264.005C7.258.052 6.864.605 6.6 1.12a2.502 2.502 0 00-.077.151c-1.712.153-1.697 1.569-1.684 2.707l.003.369c0 .205.009.419.026.639-.425.3-.504 1.005-.179 1.737.185.415.452.729.749.892.243.674.625 1.47 1.179 1.965v1.283C2.819 11.452.063 13.77 0 16.488L-.012 17h17.023zM1.054 16c.392-2.094 2.859-3.821 6.122-4.204l.441-.052V9.078l-.216-.15c-.393-.272-.791-.947-1.09-1.851l-.083-.281-.294-.051c-.053-.019-.208-.153-.33-.428a1.274 1.274 0 01-.112-.415l.51.143-.096-.749a7.591 7.591 0 01-.064-.95l-.003-.38c-.015-1.341.051-1.634.773-1.699.545-.048.752-.449.876-.689.15-.292.28-.543 1.12-.574L8.835 1c.829 0 2.279.169 2.669 1.282 0 .043-.052.177-.09.275-.145.374-.364.939-.254 1.853.024.188-.007.424-.04.675l-.089.805.441-.048c.008.104-.004.269-.075.472-.097.289-.242.438-.237.454h-.36l-.114.342c-.283.853-.65 1.497-1.009 1.768l-.198.15v2.726l.438.055c3.211.401 5.641 2.123 6.03 4.192H1.054z"/></symbol><symbol viewBox="0 0 19.88 17" id="users" xmlns="http://www.w3.org/2000/svg"><path d="M19.859 16.488c-.062-2.688-2.777-4.999-6.521-5.609V9.505c.492-.473.842-1.207 1.072-1.833.332-.166.623-.536.793-1.033.238-.688.146-1.323-.205-1.629.027-.238.045-.481.014-.723-.078-.663.066-1.038.195-1.368.105-.277.229-.591.105-.945C14.871.701 13.586 0 11.695 0l-.264.005c-.439.016-.769.091-1.032.2A5.737 5.737 0 008.835 0l-.264.005C7.258.052 6.864.605 6.6 1.12a2.502 2.502 0 00-.077.151c-1.712.153-1.697 1.569-1.684 2.707l.003.369c0 .205.009.419.026.639-.425.3-.504 1.005-.179 1.737.185.415.452.729.749.892.243.674.625 1.47 1.179 1.965v1.283C2.819 11.452.063 13.77 0 16.488L-.012 17h19.883zm-7.515-9.849c.238-.688.146-1.323-.205-1.629.027-.238.045-.481.014-.723-.078-.663.065-1.038.195-1.368.105-.277.229-.591.105-.945a2.55 2.55 0 00-.616-.97c.842.019 2.158.224 2.526 1.278 0 .043-.051.177-.09.275-.144.374-.363.939-.253 1.853.023.188-.008.424-.039.675l-.09.805.441-.048c.008.104-.004.269-.076.472-.096.289-.242.438-.236.454h-.36l-.115.342c-.283.853-.648 1.497-1.008 1.768l-.199.149v2.324a10.992 10.992 0 00-1.859-.473V9.505c.492-.473.842-1.207 1.071-1.833.332-.166.624-.536.794-1.033zm-8.429 9.362H1.054V16c.347-1.854 2.323-3.415 5.036-4.016.351-.078.712-.145 1.086-.188l.441-.052V9.078l-.216-.15c-.393-.272-.791-.947-1.09-1.851l-.083-.281-.294-.051c-.053-.019-.208-.153-.33-.428a1.274 1.274 0 01-.112-.415l.51.143-.096-.749a7.591 7.591 0 01-.064-.95l-.003-.38c-.015-1.341.051-1.634.773-1.699.545-.048.752-.449.876-.689.15-.292.28-.543 1.12-.574L8.835 1c.196 0 .428.011.671.04.336.04.691.124 1.017.267.435.19.812.489.981.976 0 .043-.052.177-.09.275-.144.373-.364.938-.254 1.852.023.188-.008.424-.04.675l-.089.805.441-.048a1.2 1.2 0 01-.076.472c-.096.289-.242.438-.236.454h-.36l-.114.342c-.214.644-.475 1.167-.745 1.502a1.51 1.51 0 01-.264.266l-.198.149v2.727l.438.055.022.004c3.199.407 5.62 2.124 6.008 4.188zm13.044 0c-.232-1.608-1.417-3.044-3.181-4.012 2.703.602 4.682 2.165 5.028 4.012z"/></symbol><symbol viewBox="0 0 24 24" id="video" xmlns="http://www.w3.org/2000/svg"><path d="M12 3.563c1.5 0 2.949.02 4.346.061 1.398.04 2.422.082 3.074.127l.977.054.229.02c.143.014.246.027.309.04.062.014.166.034.314.061.146.027.273.062.381.107s.232.103.375.174.281.159.416.262a3.04 3.04 0 01.595.602c.084.111.215.373.389.783.174.411.293.861.355 1.352.07.571.127 1.181.166 1.828.041.647.064 1.154.074 1.521v2.356a28.782 28.782 0 01-.24 3.885c-.062.492-.176.934-.336 1.332s-.303.672-.428.824l-.188.227a3.028 3.028 0 01-.388.355c-.135.102-.273.188-.416.254s-.268.125-.375.168c-.107.045-.234.08-.381.107-.148.025-.254.047-.322.061-.066.012-.17.027-.307.039a5.6 5.6 0 01-.223.02c-2.24.172-5.039.256-8.396.256a240.877 240.877 0 01-4.814-.088 103.364 103.364 0 01-2.686-.1l-.656-.053-.482-.055a6.498 6.498 0 01-.73-.133 4.623 4.623 0 01-.682-.281 2.736 2.736 0 01-.758-.551 2.736 2.736 0 01-.207-.246c-.086-.113-.215-.375-.389-.785s-.293-.859-.355-1.352a29.59 29.59 0 01-.166-1.828A39.909 39.909 0 010 13.447v-2.358a28.779 28.779 0 01.241-3.884c.062-.491.176-.934.336-1.332s.303-.672.428-.824l.188-.228c.124-.133.255-.251.388-.354.135-.103.273-.19.416-.262s.268-.129.375-.174.234-.08.381-.107c.148-.026.252-.047.314-.061.062-.013.166-.026.309-.04l.229-.02c2.239-.16 5.038-.24 8.395-.24zM9.521 15.107l6.482-3.349L9.521 8.37z" fill="red"/></symbol><symbol viewBox="0 0 17 17" id="view-list-alt" xmlns="http://www.w3.org/2000/svg"><path d="M5 0v4h12V0zm11 3H6V1h10zM5 10h12V6H5zm1-3h10v2H6zm-1 9h12v-4H5zm1-3h10v2H6zM0 4h4V0H0zm1-3h2v2H1zm-1 9h4V6H0zm1-3h2v2H1zm-1 9h4v-4H0zm1-3h2v2H1z"/></symbol><symbol viewBox="0 0 17 17" id="wallet" xmlns="http://www.w3.org/2000/svg"><path d="M1.564 2C.71 2 .014 2.69.014 3.538H0v10.939c0 .848.695 1.538 1.55 1.538h13.492V14.36H17V2zM1.55 15.014a.545.545 0 01-.55-.538V4.893c.024.007.054.005.078.012.143.042.293.068.453.071.007 0 .012.003.019.003h12.493v3.035h-2.859c-.862 0-1.563.673-1.563 1.5v1c0 .827.701 1.5 1.563 1.5h2.859v3zm9.633-4c-.311 0-.563-.224-.563-.5v-1c0-.276.253-.5.563-.5H16v2zM16 13.359h-.958v-1.345H16zm-.958-5.345V3.979H1.564c-.273 0-.55-.137-.55-.441A.546.546 0 011.564 3H16v5.014z"/></symbol><symbol viewBox="0 0 17 17" id="wand" xmlns="http://www.w3.org/2000/svg"><path d="M17 5h-3.293l2.328 2.328-.707.707L13 5.707V9h-1V5.714L1.354 16.379l-.707-.707L11.3 5H8V4h3.293L8.965 1.672l.707-.707L12 3.293V0h1v3.297l2.287-2.291.707.707L13.711 4H17z"/></symbol><symbol viewBox="0 0 18 18" id="warning" xmlns="http://www.w3.org/2000/svg"><path d="M17.214 7.104L10.896.785a2.681 2.681 0 00-3.791 0L.785 7.104a2.683 2.683 0 000 3.792l6.32 6.319a2.68 2.68 0 003.791 0l6.318-6.319a2.68 2.68 0 000-3.792zm-6.8-3.156l-.355 6.673H7.941l-.356-6.673zM9 14.956a1.498 1.498 0 110-2.996 1.498 1.498 0 010 2.996z" fill="#231f20"/></symbol><symbol viewBox="0 0 17 17" id="world" xmlns="http://www.w3.org/2000/svg"><path d="M8.516 0c-4.687 0-8.5 3.813-8.5 8.5s3.813 8.5 8.5 8.5 8.5-3.813 8.5-8.5S13.202 0 8.516 0zM1.041 9h2.937c.044 1.024.211 2.031.513 3H1.888a7.426 7.426 0 01-.847-3zm2.937-1H1.041a7.426 7.426 0 01.847-3h2.6a11.76 11.76 0 00-.51 3zm1.569-3h5.896c.33.965.522 1.972.569 3H4.978c.046-1.028.239-2.035.569-3zm-.569 4h7.035a10.82 10.82 0 01-.572 3H5.55a10.783 10.783 0 01-.572-3zm8.035 0h2.978a7.426 7.426 0 01-.847 3H12.5c.302-.969.469-1.976.513-3zm0-1a11.76 11.76 0 00-.51-3h2.641c.48.906.775 1.923.847 3zm1.489-4h-2.354a12.19 12.19 0 00-1.55-2.7A7.52 7.52 0 0114.502 4zM9.074 1.028c.824.897 1.484 1.9 1.972 2.972H5.944a11.3 11.3 0 011.97-2.97c.199-.015.398-.03.602-.03.188 0 .373.015.558.028zm-2.691.285A12.163 12.163 0 004.843 4H2.529a7.518 7.518 0 013.854-2.687zM2.529 13h2.317c.391.951.915 1.851 1.547 2.689A7.51 7.51 0 012.529 13zm5.397 2.97A11.355 11.355 0 015.948 13h5.094a11.328 11.328 0 01-1.979 2.972c-.181.013-.363.028-.547.028-.2 0-.395-.015-.59-.03zm2.661-.267A12.176 12.176 0 0012.144 13h2.358a7.518 7.518 0 01-3.915 2.703z"/></symbol></svg>